# xmcd
#
# Track frame offsets:
#	150
#	14249
#	27998
#	43834
#	63109
#	75203
#	90704
#	102089
#	117293
#	130658
#	142952
#	157502
#
# Disc length: 2269 seconds
#
# Revision: 0
# Processed by: cddbd v1.4PL0 Copyright (c) Steve Scherf et al.
# Submitted via: EZCDDA 4.3.3.2
#
DISCID=8908db0c
DTITLE=Count Basie - Piano Player - Best Of
DYEAR=1900
DGENRE=
TTITLE0=Jumpin' At the Woodside
TTITLE1=One O'Clock Jump
TTITLE2=Stormy Monday Blues
TTITLE3=Going To Chicago
TTITLE4=Swinging The Blues
TTITLE5=The King
TTITLE6=Red Bank Boogie
TTITLE7=Every Tub
TTITLE8=Blue and Sentimental
TTITLE9=Basie Goes (West)
TTITLE10=Lester Leaps It
TTITLE11=Shorty - George
EXTD=
EXTT0=
EXTT1=
EXTT2=
EXTT3=
EXTT4=
EXTT5=
EXTT6=
EXTT7=
EXTT8=
EXTT9=
EXTT10=
EXTT11=
PLAYORDER=
